<?xml version="1.0" standalone="no"?><!DOCTYPE svg PUBLIC "-//W3C//DTD SVG 1.1//EN" "http://www.w3.org/Graphics/SVG/1.1/DTD/svg11.dtd"><svg t="1568026826714" class="icon" viewBox="0 0 1024 1024" version="1.1" xmlns="http://www.w3.org/2000/svg" p-id="8282" width="20" height="20" xmlns:xlink="http://www.w3.org/1999/xlink"><defs><style type="text/css"></style></defs><path d="M706.56 381.44L325.12 0 264.96 60.16l101.546667 101.546667-219.733334 219.733333a63.573333 63.573333 0 0 0 0 90.453333l234.666667 234.666667a64 64 0 0 0 90.453333 0l234.666667-234.666667a63.573333 63.573333 0 0 0 0-90.453333zM222.293333 426.666667L426.666667 222.293333 631.04 426.666667zM810.666667 490.666667C4.266667 0 725.333333 583.253333 725.333333 640a85.333333 85.333333 0 0 0 170.666667 0c0-56.746667-85.333333-149.333333-85.333333-149.333333z" fill="" p-id="8283"></path><path d="M0 853.333333h1024v170.666667H0v-170.666667z" fill="" p-id="8284"></path></svg>