<?xml version="1.0" standalone="no"?><!DOCTYPE svg PUBLIC "-//W3C//DTD SVG 1.1//EN" "http://www.w3.org/Graphics/SVG/1.1/DTD/svg11.dtd"><svg t="1568025769441" class="icon" viewBox="0 0 1252 1024" version="1.1" xmlns="http://www.w3.org/2000/svg" p-id="15223" width="36.6796875" height="30" xmlns:xlink="http://www.w3.org/1999/xlink"><defs><style type="text/css"></style></defs><path d="M1138.785108 910.163215v113.798852h-75.865901v-113.798852H947.944434v-75.865901h114.974773v-114.974773h75.865901v114.974773h112.622931v75.865901h-112.622931zM718.753547 283.09361a97.753214 97.753214 0 0 1 95.401371-96.501426 95.022041 95.022041 0 0 1 98.625671 96.501426 89.066568 89.066568 0 0 1-98.625671 96.463493 91.683941 91.683941 0 0 1-95.401371-96.463493zM1062.122615 74.879644h2.162178L1077.599259 0.568994a63.272162 63.272162 0 0 1 61.527246 56.482164V643.532506l-77.00389 0.720726s0.341397-417.527987 0-569.373588z m-986.256714 0l1.251787 693.035007 39.526135-34.518985 231.732395-342.534544 211.286534 281.424561 167.51191-168.611966 222.400889 231.997926s-162.808224 83.831821-111.067679 174.491572H56.899426a57.961548 57.961548 0 0 1-56.899426-56.899425V57.164956l2.124245 0.493129A84.059418 84.059418 0 0 1 57.051158 0.075866h1004.957658v74.803778H75.221041zM1077.826857-0.037933v0.493128l-4.096759-0.493128h4.172625z" p-id="15224"></path></svg>