<?xml version="1.0" standalone="no"?><!DOCTYPE svg PUBLIC "-//W3C//DTD SVG 1.1//EN" "http://www.w3.org/Graphics/SVG/1.1/DTD/svg11.dtd"><svg t="1568025781431" class="icon" viewBox="0 0 1024 1024" version="1.1" xmlns="http://www.w3.org/2000/svg" p-id="15501" width="30" height="30" xmlns:xlink="http://www.w3.org/1999/xlink"><defs><style type="text/css"></style></defs><path d="M853.333333 490.666667H149.333333V234.666667a21.333333 21.333333 0 0 1 21.333334-21.333334h53.333333a32 32 0 0 0 0-64H128a42.666667 42.666667 0 0 0-42.666667 42.666667v640a42.666667 42.666667 0 0 0 42.666667 42.666667h746.666667a42.666667 42.666667 0 0 0 42.666666-42.666667V192a42.666667 42.666667 0 0 0-42.666666-42.666667h-96a32 32 0 0 0 0 64H832a21.333333 21.333333 0 0 1 21.333333 21.333334v256z m0 64v234.666666a21.333333 21.333333 0 0 1-21.333333 21.333334H170.666667a21.333333 21.333333 0 0 1-21.333334-21.333334V554.666667h704zM469.333333 149.333333h-96a32 32 0 0 0 0 64H469.333333v96a32 32 0 0 0 64 0V213.333333h96a32 32 0 0 0 0-64H533.333333V53.333333a32 32 0 0 0-64 0V149.333333z" p-id="15502"></path></svg>