<?xml version="1.0" standalone="no"?><!DOCTYPE svg PUBLIC "-//W3C//DTD SVG 1.1//EN" "http://www.w3.org/Graphics/SVG/1.1/DTD/svg11.dtd"><svg t="1568025791142" class="icon" viewBox="0 0 1137 1024" version="1.1" xmlns="http://www.w3.org/2000/svg" p-id="15699" width="33.310546875" height="30" xmlns:xlink="http://www.w3.org/1999/xlink"><defs><style type="text/css"></style></defs><path d="M330.638222 358.968889C373.191111 308.603259 430.648889 275.64563 493.150815 265.481481v102.893038c-42.287407 15.890963-71.717926 39.215407-87.950222 69.973333-16.611556 31.175111-24.803556 69.290667-24.803556 114.308741v7.585185h112.753778L493.037037 796.444444H265.557333l0.113778-241.967407c-2.578963-71.907556 20.707556-141.842963 64.967111-195.508148z m379.259259 0C752.45037 308.603259 809.908148 275.64563 872.410074 265.481481v102.893038c-42.287407 15.890963-71.717926 39.215407-87.950222 69.973333-16.611556 31.175111-24.803556 69.290667-24.803556 114.308741v7.585185h112.753778L872.296296 796.444444h-227.479703l0.113777-241.967407c-2.578963-71.907556 20.707556-141.842963 64.967111-195.508148z" p-id="15700"></path></svg>