<?xml version="1.0" standalone="no"?><!DOCTYPE svg PUBLIC "-//W3C//DTD SVG 1.1//EN" "http://www.w3.org/Graphics/SVG/1.1/DTD/svg11.dtd"><svg t="1568025652031" class="icon" viewBox="0 0 1024 1024" version="1.1" xmlns="http://www.w3.org/2000/svg" p-id="9179" xmlns:xlink="http://www.w3.org/1999/xlink" width="30" height="30"><defs><style type="text/css"></style></defs><path d="M112.128 201.216c0-23.552 15.872-44.544 35.328-44.544h729.088c19.456 0 35.328 20.992 35.328 44.544S896 245.76 876.544 245.76H147.456c-19.456 0-35.328-20.992-35.328-44.544z m35.328 355.328h454.144c19.456 0 35.328-20.992 35.328-44.544s-15.872-44.544-35.328-44.544H147.456c-19.456 0-35.328 20.992-35.328 44.544s15.872 44.544 35.328 44.544zM876.544 778.24H147.456c-19.456 0-35.328 20.992-35.328 44.544s15.872 44.544 35.328 44.544h729.088c19.456 0 35.328-20.992 35.328-44.544s-15.872-44.544-35.328-44.544z m35.328-112.128V357.888l-153.6 154.112 153.6 154.112z" p-id="9180"></path></svg>