<?xml version="1.0" standalone="no"?><!DOCTYPE svg PUBLIC "-//W3C//DTD SVG 1.1//EN" "http://www.w3.org/Graphics/SVG/1.1/DTD/svg11.dtd"><svg t="1568026646872" class="icon" viewBox="0 0 1024 1024" version="1.1" xmlns="http://www.w3.org/2000/svg" p-id="3998" width="20" height="20" xmlns:xlink="http://www.w3.org/1999/xlink"><defs><style type="text/css"></style></defs><path d="M932.6 317.8L695.2 99.5c-21.8-20-55.8-18.6-75.8 3.2L96.5 670.5c-9.5 10.4-15 24.1-14.1 38.6 0.5 14.5 6.8 27.7 17.2 37.2l196.1 180.6c5.9 5.4 13.6 8.6 21.8 8.6h608.6V871H551.5l377.4-422.6c5-5 7.7-11.8 8.2-19.1l5.9-85.8c0.4-9.3-3.2-18.9-10.4-25.7zM151 705.9l89.3-97 252.2 232-27 30.2H330.3L151 705.9z m723-291.8L535.3 793 283.8 561.7l375.9-408.1L878 354.7l-4 59.4z" p-id="3999"></path></svg>