<?xml version="1.0" standalone="no"?><!DOCTYPE svg PUBLIC "-//W3C//DTD SVG 1.1//EN" "http://www.w3.org/Graphics/SVG/1.1/DTD/svg11.dtd"><svg t="1568026726871" class="icon" viewBox="0 0 1024 1024" version="1.1" xmlns="http://www.w3.org/2000/svg" p-id="5780" width="20" height="20" xmlns:xlink="http://www.w3.org/1999/xlink"><defs><style type="text/css"></style></defs><path d="M0 0" p-id="5781"></path><path d="M121.582933 862.173867c22.4256 7.509333 46.523733-4.130133 53.998934-26.4192l61.952-185.4464H530.432l61.940622 185.4464c5.973333 17.8176 22.596267 28.8768 40.527645 28.8768 4.437333 0 9.045333-0.785067 13.5168-2.2528 22.311822-7.543467 34.463289-31.744 26.999466-54.0672L424.516267 61.576533a42.723556 42.723556 0 0 0-81.032534-0.034133L94.583467 808.209067c-7.406933 22.254933 4.676267 46.3872 26.999466 53.9648zM384 193.911467l117.998933 353.9968H266.001067L384 193.911467zM670.196622 717.494044c0 141.4144 140.026311 137.6256 192.694045 137.6256h54.545066c23.517867 0 54.545067-11.616711 54.545067-35.157333v-340.309333c0.785067-52.087467-7.0656-84.150044-40.004267-117.589334-19.3536-19.729067-48.674133-29.730133-84.138666-29.730133-47.866311 0-70.0416 19.592533-90.794667 38.536533l-9.227378 7.9872a42.587022 42.587022 0 0 0-4.084622 60.2112 42.666667 42.666667 0 0 0 60.1088 3.8912l10.1376-9.1136c16.361244-14.9504 17.692444-16.213333 32.403911-16.213333 13.061689 0 19.933867 2.2528 21.799822 4.266667 6.929067 6.997333 7.350044 34.850133 6.997334 60.757333-126.338844 23.438222-204.982044 146.147556-204.982045 234.837333z m192.659911 69.347556c-92.398933 0-109.943467-21.2992-109.943466-60.8256 0-46.535111 48.264533-131.049244 116.5312-154.020978v214.801067l-6.587734 0.045511zM960 889.2416H64c-23.586133 0-42.666667 27.716267-42.666667 51.2 0 23.552 19.080533 51.2 42.666667 51.2h896c23.506489 0 42.666667-27.648 42.666667-51.2 0-23.517867-19.080533-51.2-42.666667-51.2z" p-id="5782"></path></svg>